<svg id="svg" version="1.1" xmlns="http://www.w3.org/2000/svg" xmlns:xlink="http://www.w3.org/1999/xlink" width="400" height="384.44444444444446" viewBox="0, 0, 400,384.44444444444446"><g id="svgg"><path id="path0" d="M0.000 192.308 L 0.000 384.615 200.000 384.615 L 400.000 384.615 400.000 192.308 L 400.000 0.000 200.000 0.000 L 0.000 0.000 0.000 192.308 M183.462 119.999 C 193.704 121.008,194.993 121.171,196.029 121.586 C 196.626 121.825,198.500 122.333,200.192 122.714 C 205.677 123.951,216.676 128.014,220.000 130.032 C 220.317 130.224,221.356 130.784,222.308 131.275 C 223.260 131.766,225.059 132.849,226.306 133.680 C 227.553 134.512,229.059 135.487,229.654 135.848 C 230.248 136.208,231.065 136.814,231.469 137.194 C 231.874 137.574,233.134 138.663,234.271 139.615 C 236.301 141.316,244.263 149.185,245.374 150.589 C 245.686 150.983,246.589 152.180,247.382 153.249 C 248.174 154.318,249.103 155.538,249.446 155.962 C 250.720 157.533,254.088 163.374,256.172 167.625 C 262.829 181.205,264.385 209.227,259.051 219.456 C 258.729 220.072,258.465 220.829,258.464 221.136 C 258.461 221.736,255.506 227.769,254.114 230.017 C 251.320 234.527,246.139 240.353,241.988 243.654 C 240.657 244.712,239.138 245.966,238.611 246.442 C 238.084 246.918,237.397 247.308,237.083 247.308 C 236.770 247.308,236.420 247.553,236.305 247.854 C 236.189 248.154,235.174 248.850,234.049 249.401 C 232.923 249.952,231.805 250.641,231.562 250.933 C 231.320 251.224,230.667 251.577,230.111 251.717 C 229.554 251.857,228.673 252.306,228.153 252.715 C 227.633 253.124,226.494 253.649,225.623 253.881 C 224.751 254.113,223.767 254.544,223.435 254.840 C 223.103 255.136,221.876 255.707,220.709 256.108 C 219.542 256.510,218.083 257.094,217.466 257.406 C 216.850 257.718,215.394 258.196,214.231 258.468 C 213.067 258.740,211.769 259.184,211.346 259.454 C 210.923 259.725,209.192 260.207,207.500 260.526 C 205.808 260.845,203.817 261.357,203.077 261.662 C 202.337 261.967,200.173 262.431,198.269 262.693 C 196.365 262.955,193.954 263.408,192.911 263.700 C 188.513 264.931,182.752 264.109,185.962 262.708 C 187.019 262.246,188.153 261.625,188.480 261.329 C 188.808 261.032,190.193 260.553,191.557 260.264 C 192.922 259.975,194.904 259.302,195.962 258.768 C 197.019 258.234,198.577 257.579,199.423 257.312 C 200.269 257.044,201.221 256.610,201.538 256.346 C 201.856 256.082,202.808 255.646,203.654 255.377 C 204.500 255.108,205.605 254.567,206.110 254.175 C 206.614 253.783,207.222 253.462,207.461 253.462 C 207.700 253.462,208.794 252.856,209.894 252.115 C 210.993 251.375,212.047 250.769,212.236 250.769 C 212.425 250.769,213.015 250.380,213.547 249.904 C 214.079 249.428,215.013 248.735,215.623 248.365 C 218.970 246.330,224.424 241.522,228.630 236.896 C 231.237 234.030,235.732 227.476,236.789 225.000 C 236.924 224.683,237.603 223.172,238.296 221.643 C 238.990 220.115,239.759 217.892,240.006 216.703 C 240.252 215.515,240.698 213.959,240.996 213.245 C 241.613 211.769,241.729 201.428,241.162 198.462 C 240.980 197.510,240.556 195.276,240.221 193.499 C 239.543 189.901,237.699 184.946,235.627 181.154 C 234.876 179.779,233.951 178.048,233.573 177.308 C 233.194 176.567,232.793 175.875,232.681 175.769 C 232.569 175.663,231.812 174.638,230.999 173.490 C 224.451 164.252,211.879 154.956,200.406 150.870 C 199.466 150.535,198.254 150.030,197.714 149.748 C 197.173 149.466,196.459 149.234,196.128 149.233 C 195.796 149.232,194.239 148.889,192.666 148.471 C 187.484 147.093,186.880 147.467,186.368 152.368 C 186.221 153.776,185.868 155.699,185.584 156.642 C 185.301 157.585,184.953 159.375,184.812 160.620 C 184.556 162.887,182.997 171.859,181.478 179.808 C 181.034 182.135,180.429 185.856,180.134 188.077 C 179.839 190.298,179.428 192.548,179.221 193.077 C 179.013 193.606,178.584 196.018,178.268 198.437 C 177.951 200.856,177.404 203.971,177.052 205.360 C 176.699 206.748,176.048 209.875,175.604 212.308 C 174.740 217.050,174.339 217.602,173.516 215.187 C 172.558 212.377,173.369 160.742,174.815 132.500 C 175.467 119.757,175.710 118.694,177.850 119.252 C 178.504 119.423,181.029 119.759,183.462 119.999 M166.767 141.197 C 167.586 142.104,167.708 166.061,167.136 213.679 C 166.830 239.126,166.448 236.999,171.372 237.247 C 173.018 237.331,175.936 237.195,177.856 236.946 C 185.958 235.895,189.391 235.328,190.526 234.855 C 191.189 234.578,192.683 234.126,193.846 233.851 C 197.899 232.890,202.648 230.726,208.486 227.179 C 211.603 225.285,217.885 219.286,220.887 215.337 C 224.116 211.089,228.862 201.784,230.964 195.577 C 232.042 192.393,232.212 192.124,233.079 192.223 C 234.591 192.394,234.741 192.810,235.137 197.932 C 236.443 214.815,227.895 233.104,214.397 242.308 C 208.359 246.425,203.527 249.224,202.451 249.229 C 202.212 249.230,201.816 249.473,201.570 249.770 C 201.324 250.067,200.653 250.427,200.080 250.571 C 199.507 250.714,198.000 251.322,196.731 251.922 C 193.761 253.324,190.211 254.499,186.346 255.360 C 184.654 255.736,182.404 256.309,181.346 256.633 C 179.085 257.325,169.280 258.791,163.299 259.332 C 158.697 259.748,158.077 259.521,158.077 257.419 C 158.077 256.927,157.748 255.273,157.346 253.743 C 156.944 252.213,156.322 248.712,155.963 245.962 C 155.605 243.212,154.995 239.404,154.608 237.500 C 154.221 235.596,153.713 232.221,153.480 230.000 C 153.246 227.779,152.817 224.837,152.526 223.462 C 152.235 222.087,151.791 219.144,151.540 216.923 C 151.288 214.702,150.825 211.327,150.510 209.423 C 149.406 202.755,149.255 201.690,148.657 196.346 C 148.325 193.385,147.899 190.356,147.710 189.615 C 147.520 188.875,147.180 186.712,146.953 184.808 C 146.726 182.904,146.376 179.962,146.175 178.269 C 145.974 176.577,145.553 173.808,145.240 172.115 C 144.927 170.423,144.483 167.221,144.253 165.000 C 143.780 160.440,143.259 156.822,142.507 152.885 C 141.544 147.845,141.360 141.989,142.136 141.131 C 143.231 139.921,165.670 139.981,166.767 141.197 M144.634 287.125 L 145.769 287.712 145.769 295.714 L 145.769 303.716 144.783 304.244 C 142.441 305.497,142.092 304.235,142.106 294.578 C 142.117 286.546,142.326 285.931,144.634 287.125 M166.709 287.393 C 167.428 288.420,167.600 302.581,166.910 303.871 C 166.421 304.784,165.486 304.826,164.550 303.979 C 163.354 302.897,163.488 287.986,164.701 287.137 C 165.818 286.355,165.997 286.377,166.709 287.393 M233.462 288.885 C 233.462 291.518,233.864 291.883,236.506 291.644 C 241.697 291.173,244.281 298.583,240.459 302.982 C 238.919 304.755,238.765 304.791,234.038 304.493 C 229.664 304.216,230.000 304.945,230.000 295.737 L 230.000 287.717 231.055 287.164 C 232.614 286.347,233.462 286.953,233.462 288.885 M174.061 287.499 C 174.789 288.061,174.781 288.099,173.729 289.038 C 172.385 290.236,172.154 290.236,171.611 289.043 C 170.757 287.169,172.340 286.171,174.061 287.499 M275.640 287.525 C 275.946 288.323,275.158 290.000,274.476 290.000 C 273.574 290.000,272.554 288.130,273.098 287.474 C 273.709 286.739,275.350 286.771,275.640 287.525 M119.068 288.231 C 125.877 290.591,127.016 298.707,121.157 303.110 L 119.154 304.615 115.384 304.615 L 111.614 304.615 111.191 303.404 C 110.523 301.487,110.640 290.212,111.342 288.854 C 112.253 287.092,115.118 286.861,119.068 288.231 M193.888 288.567 C 200.351 291.438,200.132 300.652,193.517 304.135 C 192.315 304.768,185.706 304.783,185.077 304.154 C 184.334 303.411,184.439 289.654,185.196 288.573 C 186.276 287.031,190.423 287.028,193.888 288.567 M115.549 291.493 C 113.854 292.519,113.781 299.225,115.447 300.891 L 116.550 301.994 118.179 301.036 C 119.438 300.296,119.968 299.655,120.515 298.212 C 122.097 294.042,118.772 289.544,115.549 291.493 M173.703 292.145 C 175.025 293.879,175.194 303.128,173.921 304.096 C 171.776 305.726,171.154 304.518,171.154 298.718 C 171.154 291.352,171.809 289.663,173.703 292.145 M275.719 293.038 C 276.434 295.186,276.288 303.061,275.517 303.912 C 273.581 306.051,272.308 304.102,272.308 299.001 C 272.308 292.115,274.270 288.685,275.719 293.038 M189.135 291.569 C 188.562 291.903,188.462 292.556,188.462 295.929 C 188.462 302.048,190.075 303.302,193.457 299.812 C 197.085 296.069,193.418 289.075,189.135 291.569 M136.254 291.860 C 137.228 292.246,139.615 295.746,139.615 296.789 C 139.615 297.930,138.151 298.694,134.984 299.204 C 130.586 299.912,131.091 302.758,135.513 302.180 C 136.651 302.032,137.165 302.165,137.763 302.763 C 139.916 304.916,132.522 305.717,130.009 303.602 C 124.229 298.739,129.342 289.126,136.254 291.860 M158.667 292.872 L 160.000 294.205 160.000 298.979 C 160.000 304.388,159.739 305.002,157.733 304.303 C 157.112 304.086,156.533 303.980,156.446 304.067 C 156.359 304.154,155.415 304.391,154.349 304.593 C 147.968 305.803,146.166 298.960,152.364 297.056 C 155.791 296.003,156.710 293.474,153.478 293.991 C 152.205 294.195,151.876 294.101,151.380 293.393 C 149.729 291.036,156.358 290.563,158.667 292.872 M210.004 291.925 C 212.595 293.312,213.263 294.480,213.404 297.875 L 213.539 301.117 211.841 302.914 C 207.889 307.096,201.429 304.446,201.429 298.643 C 201.429 293.285,205.940 289.750,210.004 291.925 M226.435 291.851 C 228.236 292.995,225.203 300.385,222.933 300.385 C 220.183 300.385,220.501 301.740,223.329 302.073 C 229.934 302.849,227.968 310.342,221.120 310.491 C 216.483 310.592,214.175 307.866,215.929 304.358 C 217.024 302.168,217.296 299.145,216.491 298.122 C 215.269 296.568,215.545 294.749,217.262 293.032 L 218.756 291.538 222.359 291.544 C 224.340 291.548,226.175 291.686,226.435 291.851 M253.872 292.759 C 257.812 295.926,256.320 299.207,250.930 299.227 C 250.067 299.230,249.608 299.488,249.238 300.179 C 248.417 301.714,249.229 302.308,252.149 302.308 C 256.065 302.308,256.470 304.045,252.720 304.758 C 247.242 305.799,243.511 302.038,244.438 296.410 C 245.180 291.906,250.330 289.913,253.872 292.759 M260.597 292.558 C 261.117 293.119,261.734 294.288,261.968 295.155 C 263.162 299.573,263.529 299.601,265.421 295.414 C 267.284 291.290,267.584 291.004,268.977 292.023 C 269.830 292.647,269.175 296.086,267.531 299.615 C 266.989 300.779,266.544 302.027,266.542 302.389 C 266.536 303.442,264.985 304.615,263.598 304.615 C 262.110 304.615,260.755 302.675,259.972 299.423 C 259.718 298.365,259.196 297.152,258.812 296.726 C 257.888 295.701,257.438 292.885,258.075 292.117 C 258.776 291.273,259.528 291.405,260.597 292.558 M220.486 293.942 C 219.255 295.510,219.862 298.306,221.372 298.019 C 221.946 297.910,222.143 297.500,222.235 296.218 C 222.392 294.035,221.414 292.761,220.486 293.942 M132.981 294.111 C 132.064 294.351,132.132 295.264,133.107 295.785 C 134.214 296.378,135.000 295.977,135.000 294.820 C 135.000 293.838,134.585 293.692,132.981 294.111 M249.305 294.334 C 249.013 294.685,249.092 295.075,249.586 295.730 L 250.271 296.638 250.876 295.775 C 251.902 294.310,250.439 292.967,249.305 294.334 M206.435 295.206 C 205.099 296.114,205.000 296.314,205.000 298.108 C 205.000 301.168,207.928 303.377,208.832 300.999 C 209.025 300.491,209.367 299.961,209.592 299.822 C 210.509 299.255,209.009 294.231,207.922 294.231 C 207.894 294.231,207.225 294.670,206.435 295.206 M235.484 294.886 C 232.525 295.457,232.961 300.835,236.038 301.719 C 237.765 302.216,238.818 297.643,237.456 295.563 C 237.114 295.042,236.725 294.639,236.590 294.668 C 236.456 294.697,235.958 294.795,235.484 294.886 M154.008 298.341 C 153.888 298.725,153.548 299.597,153.251 300.280 C 152.758 301.417,152.774 301.555,153.446 301.915 C 155.263 302.887,156.020 301.975,155.378 299.590 C 154.917 297.879,154.321 297.336,154.008 298.341 M219.617 304.940 C 217.322 305.624,219.482 308.036,221.911 307.503 C 223.265 307.205,224.302 306.122,223.882 305.443 C 223.511 304.842,220.958 304.541,219.617 304.940 " stroke="none" fill="#3c3c3c" fill-rule="evenodd"></path><path id="path1" d="M142.751 142.788 C 142.422 143.412,142.404 144.029,142.686 144.997 C 142.901 145.736,143.077 146.909,143.077 147.604 C 143.077 148.298,143.407 150.203,143.809 151.837 C 144.212 153.471,144.748 157.144,145.000 160.000 C 145.253 162.856,145.708 165.860,146.012 166.677 C 146.317 167.493,146.740 170.003,146.953 172.254 C 147.441 177.417,147.908 180.400,148.644 183.050 C 148.962 184.199,149.413 187.054,149.645 189.396 C 149.876 191.738,150.406 194.671,150.823 195.914 C 151.239 197.157,151.729 199.897,151.912 202.004 C 152.302 206.492,153.256 207.348,154.318 204.162 C 154.429 203.828,154.783 203.829,155.752 204.167 C 156.459 204.414,157.973 204.615,159.115 204.615 C 160.257 204.615,161.687 204.871,162.292 205.184 C 163.386 205.750,163.398 205.744,164.553 203.934 L 165.714 202.115 166.127 180.577 C 166.677 151.879,166.665 142.973,166.077 142.385 C 165.739 142.047,162.613 141.923,154.411 141.923 L 143.207 141.923 142.751 142.788 M176.208 186.839 C 175.647 193.020,175.652 195.059,176.232 196.417 C 176.780 197.701,177.195 193.709,177.267 186.465 C 177.323 180.759,176.741 180.964,176.208 186.839 M241.154 186.724 C 241.154 188.554,241.308 189.279,241.750 189.526 C 243.802 190.675,243.558 213.837,241.451 217.885 C 241.120 218.519,240.642 219.811,240.388 220.756 C 240.134 221.700,239.608 222.877,239.220 223.370 C 238.832 223.863,238.406 224.760,238.274 225.363 C 238.142 225.966,237.697 226.763,237.286 227.135 C 236.875 227.507,236.538 228.027,236.538 228.290 C 236.538 228.554,235.856 229.695,235.023 230.827 C 234.189 231.959,233.107 233.471,232.619 234.188 C 231.514 235.811,226.360 241.400,224.808 242.660 C 224.173 243.175,222.875 244.314,221.923 245.191 C 220.971 246.067,219.825 247.032,219.376 247.334 C 218.927 247.637,217.575 248.633,216.372 249.549 C 215.169 250.464,213.589 251.461,212.861 251.765 C 212.134 252.069,211.538 252.466,211.538 252.646 C 211.538 252.827,210.716 253.354,209.712 253.817 C 208.707 254.281,206.587 255.330,205.000 256.148 C 203.413 256.967,201.199 257.916,200.078 258.257 C 198.957 258.599,197.947 259.122,197.832 259.421 C 197.633 259.940,196.534 260.388,194.038 260.968 L 192.885 261.237 193.846 261.609 C 194.890 262.013,199.487 261.673,199.799 261.168 C 199.904 260.998,201.161 260.650,202.591 260.395 C 205.773 259.828,213.263 257.584,216.202 256.317 C 217.392 255.804,218.571 255.385,218.822 255.385 C 219.594 255.385,230.658 250.106,230.981 249.584 C 231.094 249.402,231.914 248.930,232.804 248.535 C 233.695 248.140,234.661 247.530,234.951 247.178 C 235.241 246.826,235.696 246.538,235.962 246.538 C 236.227 246.538,236.679 246.255,236.966 245.909 C 237.254 245.563,238.097 244.892,238.841 244.419 C 240.867 243.127,246.792 237.445,248.601 235.057 C 249.476 233.902,250.668 232.335,251.250 231.575 C 251.832 230.815,252.659 229.464,253.088 228.574 C 253.517 227.683,254.020 226.861,254.206 226.746 C 254.391 226.631,254.819 225.730,255.155 224.743 C 255.491 223.756,256.025 222.662,256.341 222.313 C 256.658 221.963,257.089 220.766,257.301 219.653 C 257.512 218.540,258.042 216.821,258.478 215.834 C 259.380 213.795,260.498 203.881,260.195 200.603 C 260.096 199.531,259.833 196.058,259.610 192.885 C 259.016 184.430,258.938 184.028,258.056 184.827 C 257.663 185.182,257.226 186.244,257.085 187.186 L 256.828 188.899 255.774 187.889 C 254.684 186.845,246.073 186.517,244.146 187.447 C 243.613 187.704,243.365 187.467,242.866 186.220 C 241.833 183.637,241.154 183.836,241.154 186.724 M231.765 199.583 C 231.613 200.931,231.200 202.249,230.754 202.817 C 229.703 204.153,229.830 205.727,231.111 207.223 L 232.191 208.485 232.442 204.953 C 232.929 198.084,232.405 193.925,231.765 199.583 " stroke="none" fill="#cacaca" fill-rule="evenodd"></path><path id="path2" d="M176.024 120.144 C 174.339 123.316,172.030 210.829,173.516 215.187 C 174.339 217.602,174.740 217.050,175.604 212.308 C 176.048 209.875,176.699 206.748,177.052 205.360 C 177.404 203.971,177.951 200.856,178.268 198.437 C 178.584 196.018,179.013 193.606,179.221 193.077 C 179.428 192.548,179.839 190.298,180.134 188.077 C 180.429 185.856,181.034 182.135,181.478 179.808 C 182.997 171.859,184.556 162.887,184.812 160.620 C 184.953 159.375,185.301 157.585,185.584 156.642 C 185.868 155.699,186.221 153.776,186.368 152.368 C 186.880 147.467,187.484 147.093,192.666 148.471 C 194.239 148.889,195.796 149.232,196.128 149.233 C 196.459 149.234,197.173 149.466,197.714 149.748 C 198.254 150.030,199.466 150.535,200.406 150.870 C 208.066 153.598,216.954 159.051,222.957 164.705 C 227.876 169.339,228.675 170.212,230.999 173.490 C 231.812 174.638,232.569 175.663,232.681 175.769 C 232.793 175.875,233.194 176.567,233.573 177.308 C 233.951 178.048,234.876 179.779,235.627 181.154 C 237.699 184.946,239.543 189.901,240.221 193.499 C 240.556 195.276,240.980 197.510,241.162 198.462 C 241.729 201.428,241.613 211.769,240.996 213.245 C 240.698 213.959,240.252 215.515,240.006 216.703 C 239.759 217.892,238.990 220.115,238.296 221.643 C 237.603 223.172,236.924 224.683,236.789 225.000 C 235.732 227.476,231.237 234.030,228.630 236.896 C 224.424 241.522,218.970 246.330,215.623 248.365 C 215.013 248.735,214.079 249.428,213.547 249.904 C 213.015 250.380,212.425 250.769,212.236 250.769 C 212.047 250.769,210.993 251.375,209.894 252.115 C 208.794 252.856,207.700 253.462,207.461 253.462 C 207.222 253.462,206.614 253.783,206.110 254.175 C 205.605 254.567,204.500 255.108,203.654 255.377 C 202.808 255.646,201.856 256.082,201.538 256.346 C 201.221 256.610,200.269 257.044,199.423 257.312 C 198.577 257.579,197.019 258.234,195.962 258.768 C 194.904 259.302,192.922 259.975,191.557 260.264 C 190.193 260.553,188.808 261.032,188.480 261.329 C 188.153 261.625,187.019 262.246,185.962 262.708 C 182.752 264.109,188.513 264.931,192.911 263.700 C 193.954 263.408,196.365 262.955,198.269 262.693 C 200.173 262.431,202.337 261.967,203.077 261.662 C 203.817 261.357,205.808 260.845,207.500 260.526 C 209.192 260.207,210.923 259.725,211.346 259.454 C 211.769 259.184,213.067 258.740,214.231 258.468 C 215.394 258.196,216.850 257.718,217.466 257.406 C 218.083 257.094,219.542 256.510,220.709 256.108 C 221.876 255.707,223.103 255.136,223.435 254.840 C 223.767 254.544,224.751 254.113,225.623 253.881 C 226.494 253.649,227.633 253.124,228.153 252.715 C 228.673 252.306,229.554 251.857,230.111 251.717 C 230.667 251.577,231.320 251.224,231.562 250.933 C 231.805 250.641,232.923 249.952,234.049 249.401 C 235.174 248.850,236.189 248.154,236.305 247.854 C 236.420 247.553,236.770 247.308,237.083 247.308 C 237.397 247.308,238.084 246.918,238.611 246.442 C 239.138 245.966,240.657 244.712,241.988 243.654 C 246.139 240.353,251.320 234.527,254.114 230.017 C 255.506 227.769,258.461 221.736,258.464 221.136 C 258.465 220.829,258.729 220.072,259.051 219.456 C 264.385 209.227,262.829 181.205,256.172 167.625 C 254.088 163.374,250.720 157.533,249.446 155.962 C 249.103 155.538,248.174 154.318,247.382 153.249 C 246.589 152.180,245.686 150.983,245.374 150.589 C 244.263 149.185,236.301 141.316,234.271 139.615 C 233.134 138.663,231.874 137.574,231.469 137.194 C 231.065 136.814,230.248 136.208,229.654 135.848 C 229.059 135.487,227.553 134.512,226.306 133.680 C 225.059 132.849,223.260 131.766,222.308 131.275 C 221.356 130.784,220.317 130.224,220.000 130.032 C 216.676 128.014,205.677 123.951,200.192 122.714 C 198.500 122.333,196.626 121.825,196.029 121.586 C 194.993 121.171,193.704 121.008,183.462 119.999 C 181.029 119.759,178.504 119.423,177.850 119.252 C 176.775 118.972,176.601 119.057,176.024 120.144 M142.136 141.131 C 141.360 141.989,141.544 147.845,142.507 152.885 C 143.259 156.822,143.780 160.440,144.253 165.000 C 144.483 167.221,144.927 170.423,145.240 172.115 C 145.553 173.808,145.974 176.577,146.175 178.269 C 146.376 179.962,146.726 182.904,146.953 184.808 C 147.180 186.712,147.520 188.875,147.710 189.615 C 147.899 190.356,148.325 193.385,148.657 196.346 C 149.255 201.690,149.406 202.755,150.510 209.423 C 150.825 211.327,151.288 214.702,151.540 216.923 C 151.791 219.144,152.235 222.087,152.526 223.462 C 152.817 224.837,153.246 227.779,153.480 230.000 C 153.713 232.221,154.221 235.596,154.608 237.500 C 154.995 239.404,155.605 243.212,155.963 245.962 C 156.322 248.712,156.944 252.213,157.346 253.743 C 157.748 255.273,158.077 256.927,158.077 257.419 C 158.077 259.521,158.697 259.748,163.299 259.332 C 169.280 258.791,179.085 257.325,181.346 256.633 C 182.404 256.309,184.654 255.736,186.346 255.360 C 190.211 254.499,193.761 253.324,196.731 251.922 C 198.000 251.322,199.507 250.714,200.080 250.571 C 200.653 250.427,201.324 250.067,201.570 249.770 C 201.816 249.473,202.212 249.230,202.451 249.229 C 203.527 249.224,208.359 246.425,214.397 242.308 C 227.895 233.104,236.443 214.815,235.137 197.932 C 234.741 192.810,234.591 192.394,233.079 192.223 C 232.212 192.124,232.042 192.393,230.964 195.577 C 228.862 201.784,224.116 211.089,220.887 215.337 C 217.885 219.286,211.603 225.285,208.486 227.179 C 202.648 230.726,197.899 232.890,193.846 233.851 C 192.683 234.126,191.189 234.578,190.526 234.855 C 189.391 235.328,185.958 235.895,177.856 236.946 C 175.936 237.195,173.018 237.331,171.372 237.247 C 166.448 236.999,166.830 239.126,167.136 213.679 C 167.708 166.061,167.586 142.104,166.767 141.197 C 165.670 139.981,143.231 139.921,142.136 141.131 M166.530 142.485 C 167.082 143.515,166.927 166.317,166.116 203.606 L 165.716 222.019 164.486 223.807 C 163.325 225.495,163.204 225.567,162.302 225.110 C 161.047 224.475,158.904 224.490,157.655 225.141 C 156.767 225.605,156.607 225.583,156.210 224.947 C 155.964 224.553,155.524 224.231,155.232 224.231 C 154.649 224.231,154.460 223.428,153.840 218.311 C 153.613 216.430,153.168 214.273,152.853 213.518 C 152.537 212.763,152.017 209.715,151.697 206.745 C 151.377 203.776,150.867 200.654,150.563 199.808 C 150.259 198.962,149.836 196.625,149.622 194.615 C 148.876 187.597,148.506 185.087,147.943 183.224 C 147.632 182.191,147.171 179.096,146.919 176.346 C 146.668 173.596,146.133 169.938,145.731 168.217 C 145.329 166.495,145.000 164.468,145.000 163.711 C 145.000 161.905,143.969 154.325,143.293 151.154 C 142.665 148.215,142.121 143.898,142.273 143.077 C 142.553 141.573,142.828 141.538,154.597 141.538 L 166.024 141.538 166.530 142.485 M178.306 162.260 C 178.771 164.397,178.890 164.460,179.656 162.981 C 180.067 162.188,180.674 161.538,181.005 161.538 C 181.817 161.538,181.658 173.354,180.833 174.348 C 180.550 174.687,180.140 176.747,179.921 178.925 C 179.701 181.103,179.104 185.123,178.594 187.860 C 178.083 190.596,177.476 194.664,177.244 196.898 C 177.006 199.192,176.529 201.548,176.149 202.308 C 175.779 203.048,175.347 204.779,175.189 206.154 C 174.282 214.075,173.657 207.431,174.199 195.629 C 174.723 184.217,175.351 174.380,175.773 170.962 C 175.956 169.481,176.230 165.933,176.382 163.077 L 176.657 157.886 177.372 159.568 C 177.765 160.494,178.185 161.705,178.306 162.260 M250.379 162.412 C 250.382 162.787,250.783 163.275,251.270 163.497 C 251.841 163.757,252.333 164.501,252.655 165.590 C 252.947 166.581,253.442 167.372,253.850 167.501 C 254.301 167.644,254.707 168.396,255.005 169.636 C 255.258 170.689,255.768 171.764,256.138 172.025 C 256.585 172.339,256.906 173.281,257.089 174.808 C 257.241 176.077,257.786 178.047,258.300 179.186 C 258.937 180.596,259.423 182.804,259.823 186.109 C 260.146 188.778,260.566 191.481,260.756 192.115 C 261.367 194.158,261.623 203.090,261.136 205.385 C 260.889 206.548,260.372 209.317,259.987 211.538 C 258.982 217.340,257.313 221.875,253.687 228.654 C 252.998 229.941,250.625 233.351,249.055 235.308 C 246.552 238.430,238.525 245.654,236.142 246.929 C 235.646 247.195,235.057 247.568,234.832 247.759 C 234.003 248.463,228.640 251.526,228.225 251.532 C 227.989 251.536,227.383 251.859,226.879 252.251 C 226.374 252.643,225.055 253.262,223.947 253.627 C 222.839 253.991,221.841 254.437,221.730 254.617 C 221.619 254.797,220.881 255.146,220.091 255.393 C 219.300 255.641,217.356 256.334,215.769 256.933 C 211.500 258.548,207.021 259.908,204.505 260.354 C 203.281 260.571,201.550 260.995,200.659 261.297 C 198.102 262.163,194.954 262.428,193.113 261.933 C 191.119 261.396,191.209 261.266,194.097 260.517 C 195.334 260.196,196.628 259.681,196.973 259.372 C 197.317 259.064,198.702 258.408,200.049 257.915 C 201.397 257.422,203.538 256.483,204.808 255.827 C 206.077 255.172,207.851 254.277,208.750 253.839 C 215.325 250.631,229.574 238.730,231.680 234.689 C 231.866 234.331,232.214 233.865,232.452 233.654 C 233.402 232.810,237.862 225.542,238.273 224.168 C 238.421 223.673,238.801 222.858,239.119 222.355 C 239.437 221.853,240.326 219.603,241.095 217.355 L 242.493 213.269 242.469 204.808 C 242.445 196.105,241.100 187.710,239.418 185.769 C 239.143 185.452,238.728 184.479,238.496 183.608 C 238.264 182.736,237.739 181.598,237.330 181.078 C 236.921 180.557,236.461 179.626,236.309 179.008 C 236.157 178.390,235.644 177.365,235.169 176.731 C 234.695 176.096,234.039 174.928,233.711 174.135 C 233.384 173.341,232.848 172.692,232.520 172.692 C 232.169 172.692,231.923 172.358,231.923 171.881 C 231.923 171.142,231.607 170.688,229.519 168.423 C 229.149 168.021,228.846 167.587,228.846 167.459 C 228.846 167.331,228.413 166.886,227.885 166.470 C 227.356 166.054,226.923 165.380,226.923 164.972 C 226.923 164.501,226.658 164.231,226.195 164.231 C 225.438 164.231,224.837 163.267,225.214 162.658 C 225.535 162.137,226.824 162.234,227.372 162.821 C 227.771 163.248,228.014 163.245,228.829 162.805 C 229.595 162.392,231.793 162.297,238.941 162.367 C 248.020 162.456,248.079 162.451,248.895 161.575 C 249.770 160.635,250.366 160.972,250.379 162.412 M233.063 196.129 C 234.271 198.385,233.053 212.247,231.357 215.546 C 230.822 216.587,230.385 217.917,230.385 218.503 C 230.385 219.149,229.931 220.065,229.231 220.831 C 228.596 221.526,228.077 222.477,228.077 222.945 C 228.077 223.586,227.817 223.825,227.019 223.917 C 226.150 224.017,225.927 224.266,225.769 225.318 L 225.577 226.598 224.855 225.369 C 224.182 224.222,224.025 224.154,222.524 224.360 C 221.529 224.497,220.543 224.388,219.940 224.075 C 219.077 223.627,218.911 223.654,218.502 224.309 C 217.891 225.288,216.346 225.094,216.346 224.038 C 216.346 223.615,216.726 223.102,217.190 222.899 C 217.655 222.695,218.133 222.137,218.253 221.660 C 218.373 221.182,218.815 220.607,219.235 220.382 C 219.656 220.157,220.000 219.816,220.000 219.623 C 220.000 219.431,220.610 218.615,221.355 217.810 C 222.100 217.005,222.820 215.913,222.956 215.385 C 223.091 214.856,223.496 214.214,223.855 213.958 C 224.215 213.702,224.743 212.923,225.029 212.227 C 225.315 211.531,225.945 210.375,226.428 209.658 C 226.912 208.941,227.308 208.056,227.308 207.691 C 227.308 207.325,227.630 206.614,228.024 206.110 C 228.419 205.605,229.136 204.105,229.619 202.777 C 230.101 201.448,230.637 200.274,230.808 200.168 C 230.980 200.062,231.323 198.943,231.572 197.680 C 232.046 195.269,232.404 194.896,233.063 196.129 M215.385 225.769 C 215.385 225.981,215.125 226.154,214.808 226.154 C 214.490 226.154,214.231 225.981,214.231 225.769 C 214.231 225.558,214.490 225.385,214.808 225.385 C 215.125 225.385,215.385 225.558,215.385 225.769 M142.643 287.175 C 142.103 287.825,141.838 299.686,142.298 302.650 C 142.563 304.363,143.472 304.946,144.783 304.244 L 145.769 303.716 145.769 295.714 L 145.769 287.712 144.634 287.125 C 143.236 286.402,143.285 286.401,142.643 287.175 M164.701 287.137 C 163.488 287.986,163.354 302.897,164.550 303.979 C 166.801 306.017,167.308 304.495,167.308 295.688 C 167.308 286.876,166.915 285.587,164.701 287.137 M231.055 287.164 L 230.000 287.717 230.000 295.737 C 230.000 304.945,229.664 304.216,234.038 304.493 C 238.765 304.791,238.919 304.755,240.459 302.982 C 244.281 298.583,241.697 291.173,236.506 291.644 C 233.864 291.883,233.462 291.518,233.462 288.885 C 233.462 286.953,232.614 286.347,231.055 287.164 M171.398 287.505 C 171.154 288.139,171.863 290.000,172.348 290.000 C 173.462 290.000,174.790 288.061,174.061 287.499 C 173.099 286.756,171.684 286.759,171.398 287.505 M273.098 287.474 C 272.554 288.130,273.574 290.000,274.476 290.000 C 275.158 290.000,275.946 288.323,275.640 287.525 C 275.350 286.771,273.709 286.739,273.098 287.474 M112.784 287.580 C 110.899 287.942,109.757 299.288,111.191 303.404 L 111.614 304.615 115.384 304.615 L 119.154 304.615 121.157 303.110 C 124.108 300.893,124.615 299.847,124.615 295.985 C 124.615 290.062,119.346 286.318,112.784 287.580 M186.638 287.556 C 184.821 287.954,184.615 288.868,184.615 296.547 C 184.615 305.061,184.369 304.615,189.071 304.615 C 192.770 304.615,193.440 304.414,195.828 302.581 C 198.614 300.445,199.367 293.879,197.158 290.983 C 195.289 288.533,190.021 286.817,186.638 287.556 M165.671 299.712 C 165.603 301.880,165.547 300.106,165.547 295.769 C 165.547 291.433,165.603 289.659,165.671 291.827 C 165.740 293.995,165.740 297.543,165.671 299.712 M232.188 291.442 C 232.091 291.813,232.012 291.510,232.012 290.769 C 232.012 290.029,232.091 289.726,232.188 290.096 C 232.285 290.466,232.285 291.072,232.188 291.442 M113.154 290.462 C 112.836 290.779,112.690 292.729,112.686 296.712 C 112.682 300.659,112.560 302.316,112.300 301.923 C 111.483 300.682,111.965 290.000,112.839 290.000 C 113.443 290.000,113.513 290.103,113.154 290.462 M119.454 291.949 C 121.900 293.979,121.156 299.286,118.179 301.036 L 116.550 301.994 115.447 300.891 C 113.781 299.225,113.854 292.519,115.549 291.493 C 116.667 290.817,118.323 291.010,119.454 291.949 M171.599 292.256 C 170.993 294.279,171.006 303.544,171.615 304.154 C 172.207 304.746,173.095 304.723,173.921 304.096 C 175.194 303.128,175.025 293.879,173.703 292.145 C 172.380 290.411,172.148 290.423,171.599 292.256 M273.914 291.264 C 271.508 294.164,271.726 304.615,274.193 304.615 C 275.766 304.615,276.154 303.462,276.154 298.777 C 276.154 293.203,275.137 289.791,273.914 291.264 M192.683 291.534 C 195.307 292.938,195.731 297.466,193.457 299.812 C 190.075 303.302,188.462 302.048,188.462 295.929 C 188.462 292.556,188.562 291.903,189.135 291.569 C 190.000 291.065,191.775 291.047,192.683 291.534 M130.966 292.005 C 123.853 296.129,128.233 306.508,136.297 304.636 C 139.258 303.949,138.566 301.781,135.513 302.180 C 131.091 302.758,130.586 299.912,134.984 299.204 C 138.151 298.694,139.615 297.930,139.615 296.789 C 139.615 295.746,137.228 292.246,136.254 291.860 C 135.167 291.430,131.799 291.523,130.966 292.005 M151.212 292.045 C 150.359 293.073,151.750 294.267,153.478 293.991 C 156.710 293.474,155.791 296.003,152.364 297.056 C 146.166 298.960,147.968 305.803,154.349 304.593 C 155.415 304.391,156.359 304.154,156.446 304.067 C 156.533 303.980,157.112 304.086,157.733 304.303 C 159.739 305.002,160.000 304.388,160.000 298.979 L 160.000 294.205 158.667 292.872 C 157.190 291.395,152.210 290.843,151.212 292.045 M203.770 292.697 C 201.506 294.563,200.653 299.095,202.055 301.806 C 203.898 305.371,208.976 305.946,211.841 302.914 L 213.539 301.117 213.404 297.875 C 213.168 292.211,207.836 289.345,203.770 292.697 M217.262 293.032 C 215.545 294.749,215.269 296.568,216.491 298.122 C 217.296 299.145,217.024 302.168,215.929 304.358 C 214.175 307.866,216.483 310.592,221.120 310.491 C 227.968 310.342,229.934 302.849,223.329 302.073 C 220.501 301.740,220.183 300.385,222.933 300.385 C 224.522 300.385,226.405 297.547,226.665 294.760 C 226.966 291.542,226.979 291.552,222.359 291.544 L 218.756 291.538 217.262 293.032 M246.688 292.725 C 244.903 294.141,244.778 294.345,244.438 296.410 C 243.511 302.038,247.242 305.799,252.720 304.758 C 256.470 304.045,256.065 302.308,252.149 302.308 C 249.229 302.308,248.417 301.714,249.238 300.179 C 249.608 299.488,250.067 299.230,250.930 299.227 C 254.998 299.212,256.488 298.052,255.786 295.445 C 254.786 291.734,249.811 290.246,246.688 292.725 M258.075 292.117 C 257.438 292.885,257.888 295.701,258.812 296.726 C 259.196 297.152,259.718 298.365,259.972 299.423 C 260.755 302.675,262.110 304.615,263.598 304.615 C 264.985 304.615,266.536 303.442,266.542 302.389 C 266.544 302.027,266.989 300.779,267.531 299.615 C 269.175 296.086,269.830 292.647,268.977 292.023 C 267.584 291.004,267.284 291.290,265.421 295.414 C 263.529 299.601,263.162 299.573,261.968 295.155 C 261.224 292.400,259.170 290.798,258.075 292.117 M196.923 295.984 C 196.923 298.006,196.793 299.581,196.635 299.484 C 196.339 299.302,196.460 292.308,196.758 292.308 C 196.849 292.308,196.923 293.962,196.923 295.984 M232.481 297.502 C 232.449 299.941,232.310 302.049,232.173 302.186 C 232.035 302.324,231.926 300.114,231.929 297.276 C 231.932 294.438,232.071 292.330,232.237 292.592 C 232.404 292.854,232.514 295.064,232.481 297.502 M221.899 294.010 C 222.647 294.911,222.260 297.851,221.372 298.019 C 220.322 298.219,219.608 297.071,219.881 295.626 C 220.262 293.609,221.046 292.982,221.899 294.010 M135.000 294.820 C 135.000 295.977,134.214 296.378,133.107 295.785 C 132.132 295.264,132.064 294.351,132.981 294.111 C 134.585 293.692,135.000 293.838,135.000 294.820 M251.276 294.379 C 251.388 294.672,251.208 295.300,250.876 295.775 L 250.271 296.638 249.586 295.730 C 249.092 295.075,249.013 294.685,249.305 294.334 C 249.843 293.685,251.020 293.712,251.276 294.379 M268.065 294.904 C 268.055 295.811,267.998 295.865,267.660 295.285 C 267.443 294.914,267.372 294.438,267.502 294.228 C 267.900 293.584,268.077 293.798,268.065 294.904 M123.353 296.822 C 123.265 297.406,123.190 297.019,123.187 295.962 C 123.184 294.904,123.256 294.426,123.348 294.899 C 123.439 295.372,123.441 296.237,123.353 296.822 M172.692 295.192 C 172.692 295.721,172.519 296.154,172.308 296.154 C 171.878 296.154,171.780 294.886,172.179 294.487 C 172.603 294.063,172.692 294.185,172.692 295.192 M208.986 295.694 C 210.019 297.185,210.338 299.361,209.592 299.822 C 209.367 299.961,209.025 300.491,208.832 300.999 C 207.928 303.377,205.000 301.168,205.000 298.108 C 205.000 296.406,206.639 294.231,207.922 294.231 C 207.949 294.231,208.429 294.889,208.986 295.694 M274.642 298.345 C 274.539 303.474,274.231 303.418,274.231 298.269 C 274.231 295.978,274.340 294.212,274.474 294.346 C 274.609 294.480,274.684 296.280,274.642 298.345 M130.208 301.459 C 129.801 301.866,129.764 301.303,129.977 297.885 L 130.192 294.423 130.304 297.837 C 130.366 299.714,130.322 301.344,130.208 301.459 M136.804 296.442 C 136.707 296.813,136.628 296.510,136.628 295.769 C 136.628 295.029,136.707 294.726,136.804 295.096 C 136.900 295.466,136.900 296.072,136.804 296.442 M203.654 298.078 C 203.654 299.981,203.524 301.539,203.365 301.539 C 203.207 301.539,203.077 299.981,203.077 298.077 C 203.077 296.173,203.207 294.616,203.365 294.616 C 203.524 294.616,203.654 296.174,203.654 298.078 M237.456 295.563 C 238.818 297.643,237.765 302.216,236.038 301.719 C 232.961 300.835,232.525 295.457,235.484 294.886 C 235.958 294.795,236.456 294.697,236.590 294.668 C 236.725 294.639,237.114 295.042,237.456 295.563 M254.716 297.053 C 254.370 297.647,253.818 296.676,254.093 295.958 C 254.354 295.278,254.376 295.279,254.635 295.990 C 254.783 296.397,254.819 296.876,254.716 297.053 M212.195 298.942 C 212.103 299.418,212.028 299.029,212.028 298.077 C 212.028 297.125,212.103 296.736,212.195 297.212 C 212.286 297.688,212.286 298.466,212.195 298.942 M245.657 298.938 C 245.565 299.416,245.486 299.115,245.482 298.269 C 245.477 297.423,245.553 297.032,245.649 297.399 C 245.745 297.767,245.749 298.459,245.657 298.938 M155.378 299.590 C 156.020 301.975,155.263 302.887,153.446 301.915 C 152.774 301.555,152.758 301.417,153.251 300.280 C 153.548 299.597,153.888 298.725,154.008 298.341 C 154.321 297.336,154.917 297.879,155.378 299.590 M150.385 300.984 C 150.385 301.526,150.228 301.872,150.036 301.753 C 149.844 301.635,149.778 301.192,149.889 300.769 C 150.165 299.711,150.385 299.806,150.385 300.984 M263.840 301.827 C 263.837 302.197,263.667 302.760,263.462 303.077 C 263.179 303.515,263.087 303.352,263.083 302.404 C 263.080 301.716,263.250 301.154,263.462 301.154 C 263.673 301.154,263.844 301.457,263.840 301.827 M223.882 305.443 C 224.302 306.122,223.265 307.205,221.911 307.503 C 220.529 307.806,218.364 306.753,218.536 305.860 C 218.770 304.642,223.175 304.298,223.882 305.443 " stroke="none" fill="#9c9c9c" fill-rule="evenodd"></path><path id="path3" d="M142.685 142.125 C 142.417 142.447,142.305 142.818,142.436 142.949 C 142.567 143.080,142.783 142.903,142.917 142.555 C 143.230 141.740,165.270 141.578,166.077 142.385 C 166.412 142.720,166.563 146.161,166.629 154.981 L 166.719 167.115 166.830 155.192 C 166.911 146.511,166.817 143.034,166.483 142.404 L 166.024 141.538 154.597 141.538 C 144.829 141.538,143.101 141.624,142.685 142.125 M142.574 146.538 C 142.695 147.913,142.858 149.111,142.936 149.199 C 143.214 149.514,142.994 145.943,142.677 145.000 C 142.475 144.397,142.436 144.971,142.574 146.538 M143.325 150.962 C 143.466 151.808,143.808 153.798,144.085 155.385 L 144.587 158.269 144.419 155.577 C 144.326 154.096,143.984 152.106,143.659 151.154 L 143.067 149.423 143.325 150.962 M176.382 163.077 C 176.230 165.933,175.956 169.481,175.773 170.962 C 175.351 174.380,174.723 184.217,174.199 195.629 C 173.657 207.431,174.282 214.075,175.189 206.154 C 175.347 204.779,175.779 203.048,176.149 202.308 C 176.529 201.548,177.006 199.192,177.244 196.898 C 177.476 194.664,178.083 190.596,178.594 187.860 C 179.104 185.123,179.701 181.103,179.921 178.925 C 180.140 176.747,180.550 174.687,180.833 174.348 C 181.658 173.354,181.817 161.538,181.005 161.538 C 180.674 161.538,180.067 162.188,179.656 162.981 C 178.890 164.460,178.771 164.397,178.306 162.260 C 178.185 161.705,177.765 160.494,177.372 159.568 L 176.657 157.886 176.382 163.077 M144.712 159.808 C 144.717 160.654,144.795 160.955,144.887 160.476 C 144.979 159.998,144.976 159.306,144.880 158.938 C 144.783 158.570,144.708 158.962,144.712 159.808 M248.895 161.575 C 248.079 162.451,248.020 162.456,238.941 162.367 C 231.793 162.297,229.595 162.392,228.829 162.805 C 228.014 163.245,227.771 163.248,227.372 162.821 C 226.824 162.234,225.535 162.137,225.214 162.658 C 224.837 163.267,225.438 164.231,226.195 164.231 C 226.658 164.231,226.923 164.501,226.923 164.972 C 226.923 165.380,227.356 166.054,227.885 166.470 C 228.413 166.886,228.846 167.331,228.846 167.459 C 228.846 167.587,229.149 168.021,229.519 168.423 C 231.607 170.688,231.923 171.142,231.923 171.881 C 231.923 172.358,232.169 172.692,232.520 172.692 C 232.848 172.692,233.384 173.341,233.711 174.135 C 234.039 174.928,234.695 176.096,235.169 176.731 C 235.644 177.365,236.157 178.390,236.309 179.008 C 236.461 179.626,236.921 180.557,237.330 181.078 C 237.739 181.598,238.264 182.736,238.496 183.608 C 238.728 184.479,239.143 185.452,239.418 185.769 C 241.100 187.710,242.445 196.105,242.469 204.808 L 242.493 213.269 241.095 217.355 C 240.326 219.603,239.437 221.853,239.119 222.355 C 238.801 222.858,238.421 223.673,238.273 224.168 C 237.862 225.542,233.402 232.810,232.452 233.654 C 232.214 233.865,231.866 234.331,231.680 234.689 C 230.296 237.344,220.347 246.455,214.812 250.136 C 213.333 251.119,212.315 251.923,212.548 251.923 C 213.319 251.923,218.241 248.384,221.668 245.366 C 222.760 244.403,224.173 243.190,224.808 242.670 C 226.379 241.381,231.526 235.793,232.619 234.188 C 233.107 233.471,234.189 231.959,235.023 230.827 C 235.856 229.695,236.538 228.554,236.538 228.290 C 236.538 228.027,236.875 227.507,237.286 227.135 C 237.697 226.763,238.142 225.966,238.274 225.363 C 238.406 224.760,238.832 223.863,239.220 223.370 C 239.608 222.877,240.134 221.700,240.388 220.756 C 240.642 219.811,241.120 218.519,241.451 217.885 C 243.558 213.837,243.802 190.675,241.750 189.526 C 240.919 189.061,240.871 184.146,241.701 184.465 C 242.002 184.580,242.526 185.370,242.866 186.220 C 243.365 187.467,243.613 187.704,244.146 187.447 C 246.073 186.517,254.684 186.845,255.774 187.889 L 256.828 188.899 257.085 187.186 C 257.226 186.244,257.663 185.182,258.056 184.827 C 258.938 184.028,259.016 184.430,259.610 192.885 C 259.833 196.058,260.096 199.531,260.195 200.603 C 260.498 203.881,259.380 213.795,258.478 215.834 C 258.042 216.821,257.512 218.540,257.301 219.653 C 257.089 220.766,256.658 221.963,256.341 222.313 C 256.025 222.662,255.491 223.756,255.155 224.743 C 254.819 225.730,254.391 226.631,254.206 226.746 C 254.020 226.861,253.517 227.683,253.088 228.574 C 252.659 229.464,251.832 230.815,251.250 231.575 C 250.668 232.335,249.476 233.902,248.601 235.057 C 246.792 237.445,240.867 243.127,238.841 244.419 C 238.097 244.892,237.254 245.563,236.966 245.909 C 236.679 246.255,236.227 246.538,235.962 246.538 C 235.696 246.538,235.241 246.826,234.951 247.178 C 234.661 247.530,233.695 248.140,232.804 248.535 C 231.914 248.930,231.094 249.402,230.981 249.584 C 230.658 250.106,219.594 255.385,218.822 255.385 C 218.571 255.385,217.392 255.806,216.202 256.321 C 215.012 256.836,212.167 257.828,209.879 258.525 C 207.592 259.221,205.903 259.852,206.127 259.927 C 206.584 260.079,211.416 258.579,215.769 256.933 C 217.356 256.334,219.300 255.641,220.091 255.393 C 220.881 255.146,221.619 254.797,221.730 254.617 C 221.841 254.437,222.839 253.991,223.947 253.627 C 225.055 253.262,226.374 252.643,226.879 252.251 C 227.383 251.859,227.989 251.536,228.225 251.532 C 228.640 251.526,234.003 248.463,234.832 247.759 C 235.057 247.568,235.646 247.195,236.142 246.929 C 238.525 245.654,246.552 238.430,249.055 235.308 C 250.625 233.351,252.998 229.941,253.687 228.654 C 257.313 221.875,258.982 217.340,259.987 211.538 C 260.372 209.317,260.889 206.548,261.136 205.385 C 261.623 203.090,261.367 194.158,260.756 192.115 C 260.566 191.481,260.146 188.778,259.823 186.109 C 259.423 182.804,258.937 180.596,258.300 179.186 C 257.786 178.047,257.241 176.077,257.089 174.808 C 256.906 173.281,256.585 172.339,256.138 172.025 C 255.768 171.764,255.258 170.689,255.005 169.636 C 254.707 168.396,254.301 167.644,253.850 167.501 C 253.442 167.372,252.947 166.581,252.655 165.590 C 252.333 164.501,251.841 163.757,251.270 163.497 C 250.783 163.275,250.382 162.787,250.379 162.412 C 250.366 160.972,249.770 160.635,248.895 161.575 M145.059 163.217 C 145.026 164.245,145.329 166.495,145.731 168.217 C 146.133 169.938,146.668 173.596,146.919 176.346 C 147.171 179.096,147.632 182.191,147.943 183.224 C 148.506 185.087,148.876 187.597,149.622 194.615 C 149.836 196.625,150.259 198.962,150.563 199.808 C 150.867 200.654,151.377 203.776,151.697 206.745 C 152.017 209.715,152.537 212.763,152.853 213.518 C 153.168 214.273,153.613 216.430,153.840 218.311 C 154.460 223.428,154.649 224.231,155.232 224.231 C 155.524 224.231,155.964 224.553,156.210 224.947 C 156.607 225.583,156.767 225.605,157.655 225.141 C 158.904 224.490,161.047 224.475,162.302 225.110 C 163.204 225.567,163.325 225.495,164.486 223.807 L 165.714 222.021 166.126 204.184 C 166.353 194.373,166.510 182.106,166.477 176.923 C 166.426 169.129,166.358 170.488,166.084 184.787 L 165.752 202.074 164.572 203.914 C 163.397 205.745,163.387 205.750,162.292 205.184 C 161.687 204.871,160.257 204.615,159.115 204.615 C 157.973 204.615,156.459 204.414,155.752 204.167 C 154.783 203.829,154.429 203.828,154.318 204.162 C 153.256 207.348,152.302 206.492,151.912 202.004 C 151.729 199.897,151.239 197.157,150.823 195.914 C 150.406 194.671,149.876 191.738,149.645 189.396 C 149.413 187.054,148.961 184.199,148.640 183.050 C 147.954 180.595,146.953 173.937,146.935 171.718 C 146.929 170.865,146.646 169.221,146.308 168.065 C 145.970 166.908,145.563 164.923,145.405 163.654 L 145.117 161.346 145.059 163.217 M177.267 186.465 C 177.195 193.709,176.780 197.701,176.232 196.417 C 175.652 195.059,175.647 193.020,176.208 186.839 C 176.741 180.964,177.323 180.759,177.267 186.465 M231.572 197.680 C 231.323 198.943,230.980 200.062,230.808 200.168 C 230.637 200.274,230.101 201.448,229.619 202.777 C 229.136 204.105,228.419 205.605,228.024 206.110 C 227.630 206.614,227.308 207.325,227.308 207.691 C 227.308 208.056,226.912 208.941,226.428 209.658 C 225.945 210.375,225.315 211.531,225.029 212.227 C 224.743 212.923,224.215 213.702,223.855 213.958 C 223.496 214.214,223.091 214.856,222.956 215.385 C 222.820 215.913,222.100 217.005,221.355 217.810 C 220.610 218.615,220.000 219.431,220.000 219.623 C 220.000 219.816,219.656 220.157,219.235 220.382 C 218.815 220.607,218.373 221.182,218.253 221.660 C 218.133 222.137,217.655 222.695,217.190 222.899 C 216.726 223.102,216.346 223.615,216.346 224.038 C 216.346 225.094,217.891 225.288,218.502 224.309 C 218.911 223.654,219.077 223.627,219.940 224.075 C 220.543 224.388,221.529 224.497,222.524 224.360 C 224.025 224.154,224.182 224.222,224.855 225.369 L 225.577 226.598 225.769 225.318 C 225.927 224.266,226.150 224.017,227.019 223.917 C 227.817 223.825,228.077 223.586,228.077 222.945 C 228.077 222.477,228.596 221.526,229.231 220.831 C 229.931 220.065,230.385 219.149,230.385 218.503 C 230.385 217.917,230.822 216.587,231.357 215.546 C 233.566 211.248,234.343 195.385,232.344 195.385 C 232.168 195.385,231.820 196.418,231.572 197.680 M232.692 199.364 C 232.692 200.495,232.579 203.010,232.442 204.953 L 232.191 208.485 231.111 207.223 C 229.830 205.727,229.703 204.153,230.754 202.817 C 231.200 202.249,231.613 200.931,231.765 199.583 C 232.086 196.747,232.692 196.603,232.692 199.364 M214.231 225.769 C 214.231 225.981,214.490 226.154,214.808 226.154 C 215.125 226.154,215.385 225.981,215.385 225.769 C 215.385 225.558,215.125 225.385,214.808 225.385 C 214.490 225.385,214.231 225.558,214.231 225.769 M211.333 252.328 C 211.196 252.551,210.190 253.153,209.099 253.665 C 208.008 254.177,206.856 254.776,206.538 254.995 C 206.221 255.214,204.663 255.991,203.077 256.722 C 201.490 257.452,200.452 258.043,200.769 258.035 C 201.087 258.027,202.817 257.264,204.615 256.339 C 206.413 255.413,208.695 254.282,209.686 253.826 C 210.677 253.369,211.580 252.754,211.693 252.459 C 211.935 251.830,211.695 251.743,211.333 252.328 M197.555 259.026 C 196.785 259.548,195.187 260.229,194.002 260.538 C 192.818 260.847,191.762 261.186,191.657 261.291 C 191.343 261.605,194.320 262.307,195.769 262.260 C 196.962 262.222,196.903 262.182,195.251 261.904 C 192.960 261.520,192.652 261.266,194.089 260.946 C 196.353 260.442,197.692 259.929,197.692 259.567 C 197.692 259.362,198.255 258.949,198.942 258.650 C 199.630 258.352,199.914 258.100,199.573 258.092 C 199.232 258.084,198.324 258.504,197.555 259.026 M200.962 260.659 C 200.108 260.864,199.228 261.542,199.827 261.533 C 200.028 261.529,200.885 261.277,201.731 260.973 C 203.172 260.453,202.669 260.248,200.962 260.659 M165.547 295.769 C 165.547 300.106,165.603 301.880,165.671 299.712 C 165.740 297.543,165.740 293.995,165.671 291.827 C 165.603 289.659,165.547 291.433,165.547 295.769 M232.012 290.769 C 232.012 291.510,232.091 291.813,232.188 291.442 C 232.285 291.072,232.285 290.466,232.188 290.096 C 232.091 289.726,232.012 290.029,232.012 290.769 M111.991 295.673 C 111.951 298.894,112.085 301.596,112.300 301.923 C 112.560 302.316,112.682 300.659,112.686 296.712 C 112.690 292.729,112.836 290.779,113.154 290.462 C 113.513 290.103,113.443 290.000,112.839 290.000 C 112.098 290.000,112.059 290.261,111.991 295.673 M196.470 295.807 C 196.402 297.732,196.476 299.386,196.635 299.484 C 196.793 299.581,196.923 298.006,196.923 295.984 C 196.923 291.318,196.632 291.204,196.470 295.807 M231.929 297.276 C 231.926 300.114,232.035 302.324,232.173 302.186 C 232.536 301.823,232.595 293.154,232.237 292.592 C 232.071 292.330,231.932 294.438,231.929 297.276 M267.502 294.228 C 267.372 294.438,267.443 294.914,267.660 295.285 C 267.998 295.865,268.055 295.811,268.065 294.904 C 268.077 293.798,267.900 293.584,267.502 294.228 M123.187 295.962 C 123.190 297.019,123.265 297.406,123.353 296.822 C 123.441 296.237,123.439 295.372,123.348 294.899 C 123.256 294.426,123.184 294.904,123.187 295.962 M172.179 294.487 C 171.780 294.886,171.878 296.154,172.308 296.154 C 172.519 296.154,172.692 295.721,172.692 295.192 C 172.692 294.185,172.603 294.063,172.179 294.487 M274.231 298.269 C 274.231 300.561,274.306 302.360,274.399 302.268 C 274.671 301.996,274.741 294.613,274.474 294.346 C 274.340 294.212,274.231 295.978,274.231 298.269 M129.977 297.885 C 129.858 299.788,129.815 301.418,129.881 301.506 C 130.267 302.026,130.403 300.849,130.304 297.837 L 130.192 294.423 129.977 297.885 M136.628 295.769 C 136.628 296.510,136.707 296.813,136.804 296.442 C 136.900 296.072,136.900 295.466,136.804 295.096 C 136.707 294.726,136.628 295.029,136.628 295.769 M203.077 298.077 C 203.077 299.981,203.207 301.539,203.365 301.539 C 203.524 301.539,203.654 299.981,203.654 298.078 C 203.654 296.174,203.524 294.616,203.365 294.616 C 203.207 294.616,203.077 296.173,203.077 298.077 M254.093 295.958 C 253.943 296.348,253.980 296.826,254.175 297.021 C 254.671 297.517,254.957 296.877,254.635 295.990 C 254.376 295.279,254.354 295.278,254.093 295.958 M212.028 298.077 C 212.028 299.029,212.103 299.418,212.195 298.942 C 212.286 298.466,212.286 297.688,212.195 297.212 C 212.103 296.736,212.028 297.125,212.028 298.077 M245.482 298.269 C 245.486 299.115,245.565 299.416,245.657 298.938 C 245.749 298.459,245.745 297.767,245.649 297.399 C 245.553 297.032,245.477 297.423,245.482 298.269 M149.889 300.769 C 149.778 301.192,149.844 301.635,150.036 301.753 C 150.228 301.872,150.385 301.526,150.385 300.984 C 150.385 299.806,150.165 299.711,149.889 300.769 M263.083 302.404 C 263.087 303.352,263.179 303.515,263.462 303.077 C 263.950 302.321,263.950 301.154,263.462 301.154 C 263.250 301.154,263.080 301.716,263.083 302.404 " stroke="none" fill="#a4a4a4" fill-rule="evenodd"></path></g></svg>